<svg width="159" height="159" viewBox="0 0 159 159" fill="none" xmlns="http://www.w3.org/2000/svg">
<circle cx="79.5" cy="79.5" r="79.5" fill="#6E3ABA"/>
<circle cx="79.5" cy="79.5" r="79.5" stroke="#F4F5FA"/>
<path d="M29.71 101V71.075H20.89V61.625H27.505C28.975 61.625 29.71 60.89 29.71 59.42V56.9H39.79V101H29.71ZM78.9376 95.582C75.4516 99.614 71.0206 101.63 65.6446 101.63C60.2686 101.63 55.8166 99.614 52.2886 95.582C48.8026 91.508 47.0596 85.964 47.0596 78.95C47.0596 71.936 48.8026 66.413 52.2886 62.381C55.8166 58.307 60.2686 56.27 65.6446 56.27C71.0206 56.27 75.4516 58.307 78.9376 62.381C82.4656 66.413 84.2296 71.936 84.2296 78.95C84.2296 85.964 82.4656 91.508 78.9376 95.582ZM65.6446 91.865C67.9966 91.865 69.9916 90.752 71.6296 88.526C73.3096 86.3 74.1496 83.108 74.1496 78.95C74.1496 74.792 73.3096 71.6 71.6296 69.374C69.9916 67.148 67.9966 66.035 65.6446 66.035C63.2506 66.035 61.2346 67.148 59.5966 69.374C57.9586 71.6 57.1396 74.792 57.1396 78.95C57.1396 83.108 57.9586 86.3 59.5966 88.526C61.2346 90.752 63.2506 91.865 65.6446 91.865ZM95.2349 101L122.64 56.9H131.775L104.37 101H95.2349ZM92.2739 74.036C90.2579 71.978 89.2499 69.521 89.2499 66.665C89.2499 63.809 90.2579 61.373 92.2739 59.357C94.3319 57.299 96.7889 56.27 99.6449 56.27C102.501 56.27 104.937 57.299 106.953 59.357C109.011 61.373 110.04 63.809 110.04 66.665C110.04 69.521 109.011 71.978 106.953 74.036C104.937 76.052 102.501 77.06 99.6449 77.06C96.7889 77.06 94.3319 76.052 92.2739 74.036ZM97.1879 69.374C97.8599 70.088 98.6789 70.445 99.6449 70.445C100.611 70.445 101.43 70.088 102.102 69.374C102.774 68.66 103.11 67.757 103.11 66.665C103.11 65.573 102.774 64.67 102.102 63.956C101.43 63.242 100.611 62.885 99.6449 62.885C98.6789 62.885 97.8599 63.242 97.1879 63.956C96.5159 64.67 96.1799 65.573 96.1799 66.665C96.1799 67.757 96.5159 68.66 97.1879 69.374ZM119.994 98.606C117.978 96.548 116.97 94.091 116.97 91.235C116.97 88.379 117.978 85.943 119.994 83.927C122.052 81.869 124.509 80.84 127.365 80.84C130.221 80.84 132.657 81.869 134.673 83.927C136.731 85.943 137.76 88.379 137.76 91.235C137.76 94.091 136.731 96.548 134.673 98.606C132.657 100.622 130.221 101.63 127.365 101.63C124.509 101.63 122.052 100.622 119.994 98.606ZM124.908 93.944C125.58 94.658 126.399 95.015 127.365 95.015C128.331 95.015 129.15 94.658 129.822 93.944C130.494 93.23 130.83 92.327 130.83 91.235C130.83 90.143 130.494 89.24 129.822 88.526C129.15 87.812 128.331 87.455 127.365 87.455C126.399 87.455 125.58 87.812 124.908 88.526C124.236 89.24 123.9 90.143 123.9 91.235C123.9 92.327 124.236 93.23 124.908 93.944Z" fill="white"/>
</svg>
